<svg width="250" height="80" viewBox="0 0 250 80" fill="none" xmlns="http://www.w3.org/2000/svg">
<path d="M62.9156 49.183H87.8589V53.0358H62.9156V49.183ZM88.5993 38.2891V42.1418H62.7305L66.0625 39.6508V63.1991H59.9539V38.2891H88.5993Z" fill="#F35A1D"/>
<path d="M114.399 63.664C111.222 63.664 108.43 63.2544 106.023 62.4351C103.648 61.5937 101.781 60.4313 100.424 58.9478C99.0972 57.4642 98.4339 55.7482 98.4339 53.7997C98.4339 51.829 99.0972 50.113 100.424 48.6516C101.781 47.1681 103.648 46.0167 106.023 45.1975C108.43 44.3561 111.222 43.9354 114.399 43.9354C117.577 43.9354 120.354 44.3561 122.729 45.1975C125.136 46.0167 127.002 47.1681 128.329 48.6516C129.686 50.113 130.365 51.829 130.365 53.7997C130.365 55.7482 129.686 57.4642 128.329 58.9478C127.002 60.4313 125.136 61.5937 122.729 62.4351C120.354 63.2544 117.577 63.664 114.399 63.664ZM114.399 60.2763C116.436 60.2763 118.179 60.0106 119.629 59.4792C121.11 58.9478 122.251 58.206 123.053 57.2539C123.855 56.2796 124.256 55.1282 124.256 53.7997C124.256 52.4712 123.855 51.3308 123.053 50.3787C122.251 49.4045 121.11 48.6516 119.629 48.1202C118.179 47.5888 116.436 47.3231 114.399 47.3231C112.394 47.3231 110.651 47.5888 109.17 48.1202C107.689 48.6516 106.548 49.4045 105.746 50.3787C104.944 51.3308 104.542 52.4712 104.542 53.7997C104.542 55.1282 104.944 56.2796 105.746 57.2539C106.548 58.206 107.689 58.9478 109.17 59.4792C110.651 60.0106 112.394 60.2763 114.399 60.2763Z" fill="#F35A1D"/>
<path d="M137.009 63.1991L149.642 52.4712L149.596 54.5968L137.749 44.4003H144.644L153.622 52.0394H151.077L160.101 44.4003H166.765L154.686 54.6632L154.455 52.1722L167.505 63.1991H160.61L150.799 54.9622H153.437L143.719 63.1991H137.009Z" fill="#F35A1D"/>
<path d="M183.632 69.1442C182.089 69.1442 180.686 69.0003 179.421 68.7125C178.187 68.4467 177.03 68.0703 175.95 67.5832V64.2951C177.122 64.8265 178.233 65.214 179.282 65.4576C180.362 65.7011 181.565 65.8229 182.891 65.8229C184.156 65.8229 185.282 65.6125 186.27 65.1918C187.257 64.7933 188.074 64.0847 188.722 63.0662L200.523 44.4003H206.909L193.35 64.5276C192.61 65.6347 191.73 66.5204 190.712 67.1846C189.725 67.8711 188.63 68.3692 187.427 68.6792C186.254 68.9892 184.989 69.1442 183.632 69.1442ZM186.64 62.6012L174.608 44.4003H181.225L192.61 62.6012H186.64Z" fill="#F35A1D"/>
<path d="M210.754 70.8104V76H51.7282V70.8104H210.754Z" fill="#F35A1D"/>
<path d="M65.6316 19.3352L31 28.8201H49.6901L75.5263 21.9699V12.2215H84.8713V20.1256L127.749 8.79635L210.754 30.6644V76H219V27.5028L127.749 3L94.2164 12.2215V8.00594H65.6316V19.3352Z" fill="#F35A1D"/>
<path d="M127.41 22.3744H137.153V26.8839H127.41V22.3744Z" fill="#0072BC"/>
<path d="M139.588 22.3744H149.331V26.8839H139.588V22.3744Z" fill="#0072BC"/>
<path d="M139.588 28.0112H149.331V32.5206H139.588V28.0112Z" fill="#0072BC"/>
<path d="M127.41 28.0112H137.153V32.5206H127.41V28.0112Z" fill="#0072BC"/>
</svg>
